<svg width="65" height="63" viewBox="0 0 65 63" fill="none" xmlns="http://www.w3.org/2000/svg">
<path d="M10.5424 2H49.3495C49.6914 2 50.0096 2.17468 50.1932 2.46312L53.1429 7.09844C53.3046 7.35249 53.3431 7.66587 53.2479 7.95155L49.8984 18L58.2316 46.4309C58.3345 46.7818 58.2376 47.1608 57.9791 47.4193L51.1913 54.2071C51.0038 54.3946 50.7494 54.5 50.4842 54.5H7.43362C7.09927 54.5 6.78704 54.3329 6.60157 54.0547L2.16795 47.4043C1.99779 47.149 1.95419 46.8298 2.0497 46.5383L11.3984 18L7.54698 7.88993C7.45192 7.6404 7.46061 7.36322 7.5711 7.12013L9.63198 2.5862C9.79425 2.2292 10.1502 2 10.5424 2Z" fill="white"/>
<path d="M49.8984 18L53.2479 7.95155C53.3431 7.66587 53.3046 7.35249 53.1429 7.09844L50.1932 2.46312C50.0096 2.17468 49.6914 2 49.3495 2H10.5424C10.1502 2 9.79425 2.2292 9.63198 2.5862L7.5711 7.12013C7.46061 7.36322 7.45192 7.6404 7.54698 7.88993L11.3984 18M49.8984 18L58.2316 46.4309C58.3345 46.7818 58.2376 47.1608 57.9791 47.4193L51.1913 54.2071C51.0038 54.3946 50.7494 54.5 50.4842 54.5H7.43362C7.09927 54.5 6.78704 54.3329 6.60157 54.0547L2.16795 47.4043C1.99779 47.149 1.95419 46.8298 2.0497 46.5383L11.3984 18M49.8984 18H11.3984M45.8984 24L42.3984 43C41.3984 49.5 48.3984 49.5 48.3984 49.5M46.3984 13L44.3581 8.51123C44.1124 7.97074 44.389 7.33648 44.9522 7.14874L46.8984 6.5" stroke="black" stroke-width="4" stroke-linecap="round"/>
<path d="M9.89844 46.1553V59.2732C9.89844 60.136 10.9179 60.5938 11.5628 60.0206L13.5862 58.222C14.0234 57.8334 14.6995 57.9014 15.0505 58.3694L16.7066 60.5776C17.0718 61.0644 17.7834 61.115 18.2137 60.6847L20.5831 58.3153C21.0134 57.885 21.7251 57.9356 22.0902 58.4224L23.5984 60.4333C23.9984 60.9667 24.7984 60.9667 25.1984 60.4333L26.7464 58.3694C27.0974 57.9014 27.7735 57.8334 28.2107 58.222L30.2341 60.0206C30.879 60.5938 31.8984 60.136 31.8984 59.2732V46.1122C31.8984 46.0376 31.9068 45.9633 31.9233 45.8906L36.4299 26.0615C36.617 25.2382 35.7627 24.5679 35.0076 24.9454L32.5431 26.1777C32.1581 26.3702 31.6931 26.2947 31.3888 25.9903L29.9974 24.599C29.6518 24.2533 29.1069 24.2083 28.7091 24.4924L26.5878 26.0076C26.19 26.2917 25.6451 26.2467 25.2994 25.901L24.0442 24.6457C23.6785 24.28 23.0942 24.2535 22.6969 24.5846L20.9916 26.0057C20.6422 26.2969 20.1403 26.3156 19.7702 26.0512L18.0161 24.7984C17.464 24.404 16.6877 24.6623 16.482 25.3089L9.94551 45.8521C9.91432 45.9501 9.89844 46.0524 9.89844 46.1553Z" fill="white" stroke="black" stroke-width="4" stroke-linecap="round"/>
<path d="M47.2337 40C50.0719 40 51.1719 40.884 51.9234 43.3889C52.0864 43.932 53.0638 43.9235 53.2368 43.3834C54.0434 40.8663 55.3512 40 57.5037 40C60.585 39.9999 62.639 41.9781 62.4108 46.2381C62.1826 50.4982 55.5638 58.7144 52.3687 58.7144C49.1736 58.7144 42.0983 50.1942 42.0986 46.2381C42.0989 42.2821 44.8375 40 47.2337 40Z" fill="#FF4D62" stroke="black" stroke-width="4" stroke-linecap="round"/>
</svg>
