<svg width="68" height="58" viewBox="0 0 68 58" fill="none" xmlns="http://www.w3.org/2000/svg">
<path d="M11.8486 37.7914V34.9782C11.8486 34.6766 11.9835 34.3887 12.2325 34.2185C13.192 33.5626 14.0279 33.2338 14.0279 30.2444C14.0279 22.9347 19.0472 15.0195 33.8885 15.0195C48.7296 15.0195 53.7488 22.9347 53.7488 30.2444C53.7488 33.287 54.6147 33.5735 55.5956 34.2538C55.8067 34.4002 55.9282 34.683 55.9282 34.9839V37.7914C55.9282 42.1828 48.3001 44.2064 37.89 44.6002C46.5696 44.2719 53.3154 42.8109 55.3194 39.7895C55.748 39.1433 56.7738 38.6957 57.2671 39.274C57.8856 39.9991 58.4184 40.7416 58.621 41.4736L60.1103 45.9205C60.147 46.0303 60.167 46.1496 60.1625 46.2675C59.8913 53.3095 43.7836 55.6134 33.8885 55.6134C23.9869 55.6134 7.86405 53.3061 7.61617 46.2519C7.61238 46.144 7.63076 46.0345 7.66504 45.9321L9.15808 41.4736C9.50201 40.2309 10.7974 38.9579 11.8486 37.7914Z" fill="white"/>
<path d="M11.8486 37.7914V34.9782C11.8486 34.6766 11.9835 34.3887 12.2325 34.2185C13.192 33.5626 14.0279 33.2338 14.0279 30.2444C14.0279 22.9347 19.0472 15.0195 33.8885 15.0195C48.7296 15.0195 53.7488 22.9347 53.7488 30.2444C53.7488 33.287 54.6147 33.5735 55.5956 34.2538C55.8067 34.4002 55.9282 34.683 55.9282 34.9839V37.7914C55.9282 42.7287 46.2859 44.6729 33.8885 44.6729M11.8486 37.7914C11.8486 42.7287 21.4909 44.6729 33.8885 44.6729M11.8486 37.7914C10.7974 38.9579 9.50201 40.2309 9.15808 41.4736M9.15808 41.4736C8.99403 42.0663 9.40209 42.9927 9.80073 43.5568C13.7541 49.1512 26.4981 50.0252 33.8885 50.0252C41.2794 50.0252 54.0245 49.1512 57.9783 43.5568C58.377 42.9927 58.7851 42.0663 58.621 41.4736C58.4184 40.7416 57.8856 39.9991 57.2671 39.274C56.7738 38.6957 55.748 39.1433 55.3194 39.7895C53.0167 43.2614 44.4528 44.6729 33.8885 44.6729M9.15808 41.4736L7.66504 45.9321C7.63076 46.0345 7.61238 46.144 7.61617 46.2519C7.86405 53.3061 23.9869 55.6134 33.8885 55.6134C43.7836 55.6134 59.8913 53.3095 60.1625 46.2675C60.167 46.1496 60.147 46.0303 60.1103 45.9205L58.621 41.4736" stroke="black" stroke-width="4" stroke-linecap="round"/>
<path d="M33.8885 50.0248C26.4981 50.0248 13.7541 49.1508 9.80073 43.5564C9.40209 42.9923 8.99403 42.0659 9.15808 41.4731L7.66504 45.9317C7.63076 46.0341 7.61238 46.1436 7.61617 46.2515C7.86405 53.3057 23.9869 55.613 33.8885 55.613C43.7836 55.613 59.8913 53.3091 60.1625 46.2671C60.167 46.1492 60.147 46.0299 60.1103 45.9201L58.621 41.4731C58.7851 42.0659 58.377 42.9922 57.9783 43.5564C54.0245 49.1508 41.2794 50.0248 33.8885 50.0248Z" fill="white" stroke="black" stroke-width="4" stroke-linecap="round"/>
<path d="M33.6331 16.8263C39.2785 16.8263 43.855 14.9624 43.855 12.6632C43.855 10.3639 39.2785 8.5 33.6331 8.5C27.9876 8.5 23.4111 10.3639 23.4111 12.6632C23.4111 14.9624 27.9876 16.8263 33.6331 16.8263Z" fill="white" stroke="black" stroke-width="4"/>
<path d="M9.33185 21.2199L5.25986 21.7677C4.31866 21.8944 3.74751 20.7608 4.40936 20.0798L8.14692 16.2336C8.42163 15.9509 8.50464 15.5332 8.3589 15.167L6.30204 9.99811C5.995 9.2265 6.70784 8.43851 7.50626 8.66695L12.9851 10.2345C13.5154 10.3863 14.0685 10.0799 14.2211 9.54993L15.6096 4.73027C15.8657 3.84113 17.0882 3.74685 17.4776 4.58621L19.1957 8.28911" stroke="black" stroke-width="4" stroke-linecap="round"/>
<path d="M52.7969 10.2783L56.2969 4.21612C56.573 3.73783 57.1846 3.57396 57.6629 3.8501L64.5911 7.8501C65.0694 8.12624 65.2333 8.73783 64.9571 9.21612L61.4571 15.2783" stroke="black" stroke-width="4" stroke-linecap="round"/>
<path d="M59.9406 12.3984C60.9282 12.5935 61.7442 13.0671 62.2702 13.6519C62.7959 14.2368 63.013 14.9056 62.8898 15.5293C62.7666 16.153 62.3116 16.689 61.6029 17.03C60.8941 17.371 59.9593 17.4987 58.9717 17.3037C57.9841 17.1086 57.168 16.635 56.6421 16.0502C56.1163 15.4653 55.8993 14.7966 56.0225 14.1728C56.1457 13.5491 56.6007 13.0131 57.3094 12.6721C58.0182 12.3311 58.9529 12.2034 59.9406 12.3984Z" fill="black" stroke="black"/>
<path d="M51.2804 7.39844C52.2681 7.59352 53.0841 8.06707 53.61 8.65194C54.1358 9.23676 54.3528 9.90556 54.2296 10.5293C54.1064 11.153 53.6514 11.689 52.9428 12.03C52.234 12.371 51.2992 12.4987 50.3115 12.3037C49.3239 12.1086 48.5079 11.635 47.982 11.0502C47.4562 10.4653 47.2391 9.79655 47.3623 9.17284C47.4855 8.54912 47.9405 8.01308 48.6492 7.67208C49.358 7.33109 50.2928 7.20336 51.2804 7.39844Z" fill="black" stroke="black"/>
</svg>
