<svg width="69" height="66" viewBox="0 0 69 66" fill="none" xmlns="http://www.w3.org/2000/svg">
<path d="M11.0711 3.62018L4.20193 8.16832C2.85058 9.06319 1.87093 11.0909 2.01385 12.6978L5.41723 50.9546C5.56015 52.5614 6.61194 54.7835 7.7666 55.9179L11.4274 59.5148C12.582 60.6493 14.8287 61.4455 16.4456 61.2934L51.0788 58.0336C52.6956 57.8814 54.9854 56.8839 56.1935 55.8056L59.8131 52.5744C61.0209 51.4961 62 49.3144 62 47.7014V16.685C62 15.072 61.066 12.8428 59.9139 11.7059L52.1631 4.05846C51.011 2.92176 48.7603 2.00022 47.1361 2.00022H16.4587C14.8346 2.00022 12.4225 2.7255 11.0711 3.62018Z" fill="white"/>
<path d="M11.0711 3.62018L4.20193 8.16832C2.85058 9.06319 1.87093 11.0909 2.01385 12.6978L5.41723 50.9546C5.56015 52.5614 6.61194 54.7835 7.7666 55.9179L11.4274 59.5148C12.582 60.6493 14.8287 61.4455 16.4456 61.2934L51.0788 58.0336C52.6956 57.8814 54.9854 56.8839 56.1935 55.8056L59.8131 52.5744C61.0209 51.4961 62 49.3144 62 47.7014V16.685C62 15.072 61.066 12.8428 59.9139 11.7059L52.1631 4.05846C51.011 2.92176 48.7603 2.00022 47.1361 2.00022H16.4587C14.8346 2.00022 12.4225 2.7255 11.0711 3.62018Z" stroke="black" stroke-width="4" stroke-miterlimit="10"/>
<path d="M18.3423 14.4398L17.5444 15.1478L16.6083 16.1728L15.7947 17.2672L15.1051 18.3797L14.5858 19.329C14.5687 19.3603 14.5523 19.3921 14.5368 19.4242C14.5212 19.4563 14.5065 19.4888 14.4925 19.5216C14.4785 19.5544 14.4654 19.5876 14.4531 19.621C14.4408 19.6545 14.4293 19.6883 14.4186 19.7223C14.408 19.7563 14.3982 19.7906 14.3892 19.8251C14.3803 19.8596 14.3722 19.8944 14.3649 19.9293C14.3577 19.9642 14.3513 19.9992 14.3458 20.0344C14.3403 20.0697 14.3357 20.105 14.3319 20.1404C14.3282 20.1759 14.3253 20.2114 14.3233 20.247C14.3213 20.2826 14.3202 20.3182 14.3199 20.3538C14.3197 20.3894 14.3203 20.4251 14.3218 20.4607C14.3233 20.4963 14.3257 20.5318 14.329 20.5673C14.3323 20.6028 14.3364 20.6382 14.3415 20.6735C14.3465 20.7088 14.3524 20.7439 14.3592 20.7789C14.3659 20.8139 14.3735 20.8488 14.382 20.8834C14.3905 20.918 14.3998 20.9524 14.41 20.9866C14.4202 21.0208 14.4312 21.0547 14.4431 21.0883C14.4549 21.1219 14.4676 21.1553 14.4811 21.1883C14.4946 21.2213 14.509 21.254 14.5241 21.2863C14.5392 21.3186 14.5551 21.3506 14.5718 21.3821C14.5885 21.4136 14.606 21.4448 14.6242 21.4754C14.6425 21.5061 14.6615 21.5364 14.6812 21.5661C14.7009 21.5959 14.7214 21.6252 14.7426 21.6539C14.7637 21.6827 14.7856 21.7109 14.8082 21.7387C14.8308 21.7663 14.854 21.7935 14.8779 21.8201C14.9019 21.8466 14.9264 21.8726 14.9516 21.898C14.9768 21.9233 15.0026 21.9481 15.0291 21.9722C15.0555 21.9963 15.0825 22.0198 15.1101 22.0426C15.1377 22.0653 15.1658 22.0875 15.1945 22.1089C15.2231 22.1303 15.2523 22.151 15.282 22.171C15.3117 22.191 15.3419 22.2103 15.3726 22.2288C15.4032 22.2473 15.4343 22.2651 15.4658 22.2821C15.4974 22.2991 15.5293 22.3154 15.5616 22.3308C15.594 22.3463 15.6267 22.361 15.6598 22.3748C15.6928 22.3887 15.7262 22.4017 15.7599 22.414C15.7936 22.4262 15.8276 22.4376 15.8618 22.4482C15.8961 22.4587 15.9306 22.4685 15.9654 22.4774C16.0001 22.4863 16.0351 22.4943 16.0702 22.5015C16.1054 22.5087 16.1407 22.515 16.1761 22.5205C16.2116 22.526 16.2472 22.5306 16.2829 22.5343C16.3185 22.538 16.3543 22.5409 16.3901 22.5429C16.426 22.5449 16.4618 22.546 16.4977 22.5462C16.5336 22.5465 16.5695 22.5458 16.6053 22.5443C16.6412 22.5428 16.677 22.5404 16.7127 22.5372C16.7484 22.5339 16.7841 22.5298 16.8196 22.5248C16.8551 22.5198 16.8905 22.514 16.9257 22.5073C16.961 22.5005 16.9961 22.493 17.0309 22.4846C17.0658 22.4761 17.1004 22.4668 17.1348 22.4567C17.1692 22.4466 17.2034 22.4357 17.2373 22.4239C17.2711 22.4121 17.3047 22.3995 17.3379 22.3861C17.3712 22.3727 17.4041 22.3585 17.4366 22.3435C17.4692 22.3284 17.5013 22.3126 17.5331 22.296C17.5648 22.2794 17.5962 22.2621 17.6271 22.244C17.658 22.2259 17.6884 22.207 17.7184 22.1874C17.7484 22.1678 17.7778 22.1475 17.8068 22.1265C17.8358 22.1054 17.8642 22.0837 17.8921 22.0613C17.92 22.0389 17.9473 22.0158 17.974 21.992C18.0008 21.9683 18.027 21.9439 18.0525 21.9188C18.078 21.8938 18.103 21.8682 18.1272 21.8419C18.1515 21.8157 18.1751 21.7889 18.1981 21.7615C18.221 21.7341 18.2433 21.7061 18.2649 21.6776C18.2864 21.6492 18.3073 21.6202 18.3274 21.5907C18.3476 21.5612 18.367 21.5312 18.3856 21.5008C18.4043 21.4703 18.4222 21.4394 18.4393 21.4081L18.9302 20.5106L17.0035 19.4711L18.8707 20.6127L19.4808 19.6285L17.6135 18.4869L19.3775 19.7804L20.0706 18.8482L18.3066 17.5547L19.9307 19.0177L20.7153 18.1586L19.0913 16.6955L20.5523 18.3194L21.2644 17.6874C21.2911 17.6637 21.3173 17.6393 21.3428 17.6143C21.3684 17.5892 21.3933 17.5636 21.4176 17.5374C21.4419 17.5111 21.4655 17.4843 21.4885 17.4569C21.5114 17.4295 21.5337 17.4016 21.5553 17.3731C21.5768 17.3446 21.5977 17.3157 21.6179 17.2862C21.638 17.2567 21.6574 17.2267 21.6761 17.1963C21.6947 17.1658 21.7126 17.135 21.7298 17.1037C21.7469 17.0723 21.7633 17.0406 21.7788 17.0085C21.7944 16.9764 21.8092 16.9439 21.8232 16.9111C21.8371 16.8783 21.8503 16.8451 21.8626 16.8117C21.8749 16.7782 21.8864 16.7444 21.8971 16.7104C21.9077 16.6764 21.9175 16.6421 21.9265 16.6076C21.9355 16.5731 21.9436 16.5384 21.9508 16.5035C21.9581 16.4686 21.9645 16.4335 21.97 16.3983C21.9755 16.3631 21.9801 16.3277 21.9839 16.2923C21.9877 16.2569 21.9906 16.2214 21.9926 16.1858C21.9946 16.1502 21.9957 16.1146 21.996 16.0789C21.9962 16.0433 21.9956 16.0077 21.9941 15.9721C21.9926 15.9365 21.9902 15.9009 21.9869 15.8654C21.9837 15.8299 21.9795 15.7945 21.9745 15.7592C21.9695 15.7239 21.9636 15.6888 21.9569 15.6538C21.9501 15.6188 21.9425 15.584 21.934 15.5493C21.9255 15.5147 21.9162 15.4803 21.906 15.4461C21.8959 15.412 21.8849 15.378 21.873 15.3444C21.8611 15.3108 21.8485 15.2774 21.835 15.2444C21.8215 15.2114 21.8072 15.1787 21.7921 15.1464C21.7769 15.1141 21.761 15.0821 21.7443 15.0506C21.7277 15.019 21.7102 14.9879 21.692 14.9572C21.6737 14.9265 21.6548 14.8963 21.635 14.8665C21.6153 14.8367 21.5948 14.8075 21.5737 14.7787C21.5525 14.7499 21.5306 14.7217 21.5081 14.694C21.4855 14.6663 21.4623 14.6391 21.4384 14.6125C21.4144 14.586 21.3899 14.56 21.3647 14.5346C21.3395 14.5092 21.3137 14.4845 21.2873 14.4604C21.2608 14.4362 21.2339 14.4128 21.2063 14.39C21.1787 14.3672 21.1506 14.3451 21.1219 14.3236C21.0932 14.3022 21.064 14.2815 21.0343 14.2615C21.0046 14.2415 20.9745 14.2222 20.9438 14.2037C20.9132 14.1851 20.8821 14.1673 20.8506 14.1503C20.819 14.1333 20.7871 14.117 20.7548 14.1016C20.7224 14.0861 20.6898 14.0714 20.6567 14.0576C20.6236 14.0437 20.5903 14.0306 20.5566 14.0184C20.5229 14.0062 20.4889 13.9947 20.4546 13.9842C20.4203 13.9736 20.3858 13.9638 20.3511 13.9549C20.3163 13.946 20.2814 13.938 20.2463 13.9308C20.2111 13.9236 20.1758 13.9172 20.1403 13.9118C20.1049 13.9063 20.0693 13.9017 20.0336 13.8979C19.9979 13.8942 19.9622 13.8913 19.9264 13.8893C19.8905 13.8873 19.8547 13.8862 19.8188 13.8859C19.7829 13.8857 19.747 13.8863 19.7112 13.8878C19.6753 13.8893 19.6395 13.8917 19.6038 13.8949C19.5681 13.8982 19.5324 13.9023 19.4969 13.9072C19.4613 13.9122 19.426 13.9181 19.3907 13.9248C19.3555 13.9315 19.3204 13.9391 19.2855 13.9475C19.2507 13.9559 19.216 13.9651 19.1816 13.9752C19.1472 13.9853 19.1131 13.9963 19.0792 14.0081C19.0453 14.0198 19.0118 14.0324 18.9785 14.0458C18.9453 14.0592 18.9124 14.0734 18.8798 14.0885C18.8473 14.1035 18.8151 14.1193 18.7834 14.1358C18.7516 14.1524 18.7203 14.1698 18.6893 14.1879C18.6584 14.206 18.628 14.2248 18.598 14.2444C18.568 14.264 18.5386 14.2843 18.5096 14.3053C18.4806 14.3264 18.4522 14.3481 18.4243 14.3705C18.3964 14.3929 18.369 14.416 18.3423 14.4398ZM11.8194 26.7527L11.645 27.7005L11.4862 29.0146L11.4453 30.3915L11.5575 31.7873L11.7837 32.9539C11.7905 32.9889 11.7982 33.0238 11.8067 33.0584C11.8153 33.093 11.8246 33.1274 11.8347 33.1616C11.8449 33.1957 11.856 33.2296 11.868 33.2632C11.8798 33.2969 11.8924 33.3302 11.906 33.3632C11.9196 33.3962 11.934 33.4289 11.9491 33.4612C11.9642 33.4935 11.9801 33.5254 11.997 33.5569C12.0136 33.5885 12.0311 33.6196 12.0494 33.6503C12.0677 33.6809 12.0867 33.7112 12.1064 33.7409C12.1261 33.7707 12.1466 33.7999 12.1678 33.8287C12.189 33.8574 12.2109 33.8856 12.2336 33.9133C12.2561 33.941 12.2794 33.9681 12.3034 33.9947C12.3273 34.0212 12.3518 34.0472 12.377 34.0725C12.4022 34.0979 12.4281 34.1226 12.4545 34.1467C12.4809 34.1708 12.508 34.1942 12.5356 34.217C12.5633 34.2398 12.5914 34.2619 12.6201 34.2833C12.6488 34.3047 12.678 34.3253 12.7078 34.3453C12.7375 34.3653 12.7676 34.3846 12.7982 34.4031C12.8289 34.4216 12.86 34.4393 12.8916 34.4563C12.9231 34.4733 12.9551 34.4895 12.9875 34.5049C13.0198 34.5204 13.0525 34.535 13.0856 34.5488C13.1186 34.5627 13.152 34.5757 13.1858 34.5879C13.2195 34.6001 13.2535 34.6115 13.2877 34.622C13.322 34.6326 13.3565 34.6423 13.3913 34.6512C13.426 34.66 13.461 34.668 13.4962 34.6752C13.5313 34.6824 13.5666 34.6887 13.602 34.6941C13.6375 34.6996 13.673 34.7041 13.7087 34.7078C13.7444 34.7116 13.7802 34.7144 13.8162 34.7163C13.852 34.7183 13.8878 34.7194 13.9236 34.7196C13.9595 34.7198 13.9954 34.7192 14.0313 34.7176C14.0671 34.7161 14.1029 34.7137 14.1386 34.7104C14.1744 34.7071 14.21 34.703 14.2455 34.698C14.2811 34.6929 14.3164 34.6871 14.3517 34.6803C14.3869 34.6736 14.422 34.666 14.4568 34.6575C14.4917 34.6491 14.5263 34.6398 14.5607 34.6297C14.5951 34.6195 14.6292 34.6085 14.6631 34.5967C14.697 34.5849 14.7305 34.5723 14.7638 34.5589C14.797 34.5454 14.8299 34.5312 14.8624 34.5161C14.8949 34.5011 14.9271 34.4853 14.9588 34.4687C14.9906 34.452 15.0219 34.4347 15.0528 34.4165C15.0837 34.3984 15.1141 34.3795 15.1441 34.3599C15.174 34.3403 15.2035 34.3199 15.2324 34.2989C15.2614 34.2778 15.2898 34.2561 15.3177 34.2336C15.3455 34.2112 15.3728 34.1881 15.3996 34.1643C15.4263 34.1405 15.4524 34.1161 15.478 34.0911C15.5035 34.066 15.5284 34.0404 15.5526 34.0141C15.5769 33.9878 15.6005 33.961 15.6234 33.9336C15.6464 33.9062 15.6686 33.8782 15.6902 33.8497C15.7117 33.8212 15.7325 33.7922 15.7526 33.7627C15.7728 33.7332 15.7921 33.7032 15.8108 33.6727C15.8294 33.6423 15.8473 33.6114 15.8644 33.5801C15.8815 33.5487 15.8978 33.517 15.9134 33.4849C15.9289 33.4527 15.9436 33.4203 15.9576 33.3874C15.9715 33.3546 15.9846 33.3214 15.9969 33.2879C16.0092 33.2544 16.0206 33.2207 16.0313 33.1866C16.0419 33.1526 16.0517 33.1183 16.0606 33.0838C16.0695 33.0493 16.0776 33.0146 16.0848 32.9797C16.092 32.9447 16.0984 32.9097 16.1038 32.8744C16.1093 32.8392 16.1139 32.8039 16.1177 32.7685C16.1214 32.733 16.1242 32.6975 16.1262 32.6619C16.1282 32.6263 16.1293 32.5907 16.1295 32.5551C16.1297 32.5194 16.1291 32.4838 16.1275 32.4482C16.126 32.4126 16.1236 32.377 16.1203 32.3415C16.117 32.3061 16.1128 32.2707 16.1077 32.2354C16.1027 32.2001 16.0967 32.165 16.09 32.13L15.8866 31.0819L13.7336 31.4939L15.9193 31.3207L15.8264 30.1637L13.6406 30.3369L15.8324 30.401L15.8668 29.2409L13.6751 29.1768L15.8521 29.4365L15.9912 28.286L13.8142 28.0263L15.9712 28.4176L16.1334 27.5353C16.1399 27.5002 16.1455 27.4651 16.1502 27.4297C16.1549 27.3944 16.1587 27.359 16.1617 27.3235C16.1646 27.2879 16.1667 27.2524 16.1679 27.2168C16.1691 27.1811 16.1694 27.1455 16.1688 27.1099C16.1683 27.0742 16.1668 27.0386 16.1645 27.0031C16.1622 26.9675 16.159 26.932 16.1549 26.8966C16.1508 26.8612 16.1459 26.8259 16.1401 26.7907C16.1342 26.7556 16.1276 26.7206 16.12 26.6857C16.1125 26.6509 16.1041 26.6162 16.0948 26.5818C16.0855 26.5474 16.0754 26.5132 16.0645 26.4793C16.0535 26.4453 16.0417 26.4117 16.0291 26.3783C16.0165 26.3449 16.003 26.3119 15.9888 26.2792C15.9745 26.2465 15.9595 26.2141 15.9436 26.1822C15.9278 26.1502 15.9112 26.1186 15.8937 26.0875C15.8763 26.0563 15.8582 26.0256 15.8392 25.9953C15.8203 25.965 15.8006 25.9352 15.7802 25.9059C15.7598 25.8766 15.7387 25.8478 15.7169 25.8195C15.6951 25.7912 15.6726 25.7635 15.6494 25.7363C15.6262 25.7091 15.6023 25.6825 15.5778 25.6564C15.5533 25.6304 15.5281 25.605 15.5024 25.5802C15.4766 25.5554 15.4502 25.5312 15.4233 25.5077C15.3963 25.4842 15.3688 25.4613 15.3407 25.4392C15.3126 25.417 15.284 25.3955 15.2548 25.3747C15.2257 25.354 15.196 25.3339 15.1659 25.3146C15.1357 25.2953 15.1051 25.2767 15.074 25.2588C15.043 25.241 15.0115 25.2239 14.9796 25.2076C14.9477 25.1913 14.9154 25.1758 14.8827 25.161C14.85 25.1463 14.817 25.1324 14.7836 25.1193C14.7503 25.1061 14.7166 25.0938 14.6826 25.0824C14.6487 25.0709 14.6144 25.0602 14.5799 25.0504C14.5454 25.0406 14.5107 25.0317 14.4758 25.0236C14.4408 25.0154 14.4057 25.0082 14.3704 25.0018C14.3351 24.9954 14.2997 24.9898 14.2641 24.9852C14.2285 24.9805 14.1928 24.9767 14.1571 24.9737C14.1213 24.9708 14.0855 24.9687 14.0496 24.9675C14.0138 24.9663 13.9779 24.966 13.9421 24.9666C13.9061 24.9671 13.8703 24.9686 13.8344 24.9709C13.7986 24.9732 13.7629 24.9764 13.7274 24.9804C13.6917 24.9845 13.6561 24.9894 13.6207 24.9952C13.5853 25.001 13.5501 25.0076 13.515 25.0151C13.48 25.0226 13.4451 25.0309 13.4103 25.0401C13.3756 25.0493 13.3412 25.0594 13.3071 25.0703C13.2729 25.0811 13.239 25.0928 13.2055 25.1054C13.1719 25.1179 13.1386 25.1313 13.1056 25.1454C13.0727 25.1596 13.0401 25.1745 13.008 25.1903C12.9758 25.206 12.944 25.2225 12.9126 25.2398C12.8812 25.2571 12.8502 25.2751 12.8198 25.2939C12.7893 25.3127 12.7593 25.3323 12.7297 25.3525C12.7002 25.3728 12.6712 25.3938 12.6427 25.4154C12.6142 25.4371 12.5863 25.4595 12.559 25.4825C12.5316 25.5056 12.5048 25.5292 12.4786 25.5536C12.4524 25.5779 12.4268 25.6029 12.4019 25.6285C12.3769 25.6541 12.3525 25.6803 12.3288 25.7071C12.3052 25.7338 12.2822 25.7612 12.2599 25.7891C12.2375 25.817 12.2159 25.8454 12.195 25.8744C12.1741 25.9033 12.1539 25.9328 12.1344 25.9627C12.1149 25.9926 12.0962 26.023 12.0783 26.0539C12.0602 26.0847 12.0431 26.116 12.0267 26.1477C12.0103 26.1794 11.9946 26.2115 11.9798 26.2439C11.9649 26.2764 11.9509 26.3092 11.9378 26.3423C11.9245 26.3754 11.9121 26.4089 11.9005 26.4426C11.889 26.4764 11.8783 26.5104 11.8683 26.5446C11.8585 26.5789 11.8494 26.6134 11.8413 26.6481C11.8331 26.6828 11.8258 26.7177 11.8194 26.7527ZM14.803 40.1718L15.1964 40.9736L15.8705 42.1385L16.7085 43.2775L17.6919 44.3066L18.7544 45.1855L18.8509 45.2522C18.8804 45.2726 18.9103 45.2922 18.9408 45.3111C18.9712 45.33 19.0021 45.3481 19.0334 45.3655C19.0647 45.3829 19.0965 45.3995 19.1286 45.4153C19.1607 45.4312 19.1933 45.4462 19.2262 45.4605C19.259 45.4747 19.2923 45.4882 19.3258 45.5008C19.3594 45.5134 19.3932 45.5252 19.4274 45.5362C19.4615 45.5472 19.4959 45.5573 19.5305 45.5666C19.5652 45.576 19.6 45.5844 19.6351 45.592C19.6701 45.5996 19.7054 45.6064 19.7407 45.6123C19.7761 45.6182 19.8117 45.6232 19.8473 45.6273C19.8829 45.6315 19.9187 45.6348 19.9545 45.6372C19.9903 45.6396 20.0261 45.6411 20.062 45.6418C20.0979 45.6425 20.1337 45.6423 20.1696 45.6412C20.2055 45.6401 20.2413 45.6381 20.2771 45.6353C20.3128 45.6325 20.3485 45.6288 20.3841 45.6242C20.4197 45.6197 20.4552 45.6142 20.4905 45.6079C20.5258 45.6016 20.5609 45.5945 20.5959 45.5865C20.6309 45.5785 20.6656 45.5696 20.7001 45.5599C20.7347 45.5502 20.769 45.5396 20.803 45.5283C20.837 45.5169 20.8707 45.5047 20.9041 45.4917C20.9375 45.4787 20.9705 45.4648 21.0033 45.4502C21.036 45.4356 21.0683 45.4201 21.1003 45.4039C21.1322 45.3877 21.1638 45.3708 21.1949 45.353C21.226 45.3353 21.2567 45.3168 21.2869 45.2975C21.3171 45.2783 21.3468 45.2583 21.376 45.2376C21.4052 45.2169 21.4339 45.1955 21.4621 45.1734C21.4903 45.1514 21.5179 45.1286 21.5449 45.1052C21.5719 45.0817 21.5984 45.0576 21.6242 45.0329C21.6501 45.0082 21.6753 44.9829 21.6999 44.9569C21.7245 44.931 21.7484 44.9044 21.7717 44.8773C21.795 44.8502 21.8176 44.8225 21.8395 44.7943C21.8614 44.766 21.8826 44.7373 21.9031 44.7081C21.9236 44.6788 21.9433 44.6491 21.9624 44.6188C21.9814 44.5886 21.9996 44.5579 22.0171 44.5268C22.0346 44.4957 22.0514 44.4642 22.0673 44.4323C22.0833 44.4004 22.0984 44.3681 22.1128 44.3354C22.1271 44.3027 22.1407 44.2697 22.1534 44.2364C22.1661 44.2031 22.178 44.1695 22.189 44.1356C22.2001 44.1017 22.2103 44.0675 22.2197 44.0331C22.229 43.9987 22.2376 43.9641 22.2452 43.9293C22.2529 43.8945 22.2597 43.8595 22.2656 43.8243C22.2715 43.7892 22.2766 43.7539 22.2808 43.7185C22.285 43.6831 22.2883 43.6476 22.2907 43.6121C22.2931 43.5765 22.2947 43.5409 22.2954 43.5053C22.296 43.4696 22.2958 43.434 22.2947 43.3984C22.2936 43.3628 22.2917 43.3272 22.2888 43.2917C22.286 43.2561 22.2823 43.2207 22.2777 43.1854C22.2731 43.15 22.2676 43.1148 22.2613 43.0797C22.2549 43.0446 22.2477 43.0097 22.2396 42.975C22.2316 42.9403 22.2227 42.9058 22.2129 42.8715C22.2031 42.8372 22.1925 42.8032 22.181 42.7694C22.1696 42.7356 22.1573 42.7021 22.1442 42.6689C22.1311 42.6358 22.1172 42.6029 22.1024 42.5704C22.0877 42.5379 22.0722 42.5058 22.0559 42.4741C22.0395 42.4423 22.0224 42.411 22.0046 42.3801C21.9867 42.3492 21.9681 42.3187 21.9487 42.2888C21.9293 42.2588 21.9092 42.2292 21.8884 42.2002C21.8676 42.1712 21.846 42.1427 21.8238 42.1147C21.8015 42.0868 21.7786 42.0594 21.755 42.0325C21.7314 42.0057 21.7072 41.9794 21.6823 41.9537C21.6574 41.9281 21.6319 41.903 21.6057 41.8786C21.5796 41.8542 21.5529 41.8304 21.5256 41.8073C21.4983 41.7842 21.4704 41.7617 21.442 41.74C21.4136 41.7182 21.3846 41.6971 21.3552 41.6768L21.3367 41.664L20.0846 43.4518L21.4879 41.7785L20.5973 41.0417L19.194 42.715L20.7845 41.216L19.9864 40.3807L18.3959 41.8797L20.1662 40.5949L19.4821 39.6651L17.7117 40.95L19.6129 39.865L19.036 38.8679L17.1348 39.9529L19.1059 38.9989L18.7453 38.2638C18.7295 38.2318 18.713 38.2002 18.6958 38.1689C18.6785 38.1377 18.6604 38.1069 18.6416 38.0766C18.6228 38.0462 18.6033 38.0163 18.583 37.9869C18.5627 37.9575 18.5417 37.9286 18.52 37.9003C18.4983 37.8719 18.4759 37.8441 18.4528 37.8168C18.4297 37.7895 18.406 37.7628 18.3815 37.7367C18.3571 37.7105 18.3321 37.685 18.3064 37.6601C18.2808 37.6352 18.2545 37.6109 18.2276 37.5873C18.2008 37.5637 18.1733 37.5407 18.1453 37.5184C18.1173 37.4962 18.0888 37.4746 18.0597 37.4537C18.0306 37.4328 18.0011 37.4126 17.971 37.3931C17.9409 37.3737 17.9104 37.355 17.8794 37.337C17.8484 37.3191 17.817 37.3019 17.7852 37.2854C17.7533 37.269 17.7211 37.2533 17.6885 37.2385C17.6559 37.2236 17.6229 37.2096 17.5896 37.1963C17.5563 37.1831 17.5226 37.1706 17.4887 37.159C17.4548 37.1474 17.4206 37.1366 17.3862 37.1267C17.3517 37.1167 17.317 37.1076 17.2821 37.0994C17.2472 37.0911 17.2121 37.0837 17.1768 37.0772C17.1415 37.0706 17.1061 37.0649 17.0706 37.0601C17.035 37.0553 16.9994 37.0514 16.9636 37.0483C16.9279 37.0452 16.8921 37.043 16.8562 37.0416C16.8203 37.0403 16.7845 37.0399 16.7486 37.0403C16.7127 37.0407 16.6769 37.042 16.641 37.0441C16.6052 37.0463 16.5695 37.0493 16.5338 37.0532C16.4981 37.0571 16.4626 37.0619 16.4271 37.0676C16.3917 37.0732 16.3564 37.0797 16.3213 37.0871C16.2862 37.0944 16.2513 37.1026 16.2166 37.1117C16.1819 37.1208 16.1474 37.1307 16.1132 37.1414C16.079 37.1522 16.0451 37.1637 16.0114 37.1761C15.9778 37.1885 15.9445 37.2017 15.9115 37.2157C15.8785 37.2298 15.8459 37.2446 15.8136 37.2602C15.7813 37.2758 15.7495 37.2922 15.718 37.3094C15.6866 37.3265 15.6556 37.3445 15.625 37.3631C15.5945 37.3818 15.5644 37.4012 15.5348 37.4214C15.5052 37.4415 15.4761 37.4624 15.4475 37.4839C15.4189 37.5055 15.3909 37.5277 15.3634 37.5507C15.336 37.5736 15.3091 37.5972 15.2828 37.6214C15.2565 37.6457 15.2308 37.6705 15.2057 37.696C15.1806 37.7215 15.1562 37.7476 15.1324 37.7743C15.1086 37.801 15.0855 37.8282 15.0631 37.856C15.0406 37.8838 15.0189 37.9122 14.9978 37.9411C14.9768 37.9699 14.9565 37.9993 14.9369 38.0292C14.9173 38.059 14.8985 38.0893 14.8804 38.1201C14.8623 38.1509 14.845 38.1821 14.8284 38.2137C14.8119 38.2454 14.7961 38.2774 14.7812 38.3098C14.7662 38.3422 14.7521 38.3749 14.7387 38.408C14.7254 38.4411 14.7129 38.4744 14.7012 38.5081C14.6895 38.5418 14.6786 38.5758 14.6686 38.61C14.6586 38.6442 14.6494 38.6787 14.6411 38.7134C14.6328 38.748 14.6253 38.7829 14.6187 38.8179C14.6122 38.8529 14.6064 38.8881 14.6016 38.9234C14.5967 38.9587 14.5928 38.9942 14.5897 39.0297C14.5866 39.0652 14.5843 39.1007 14.583 39.1363C14.5817 39.172 14.5812 39.2076 14.5816 39.2432C14.582 39.2789 14.5833 39.3145 14.5855 39.35C14.5877 39.3856 14.5907 39.4211 14.5947 39.4565C14.5986 39.492 14.6034 39.5273 14.6091 39.5625C14.6148 39.5977 14.6213 39.6327 14.6287 39.6675C14.6361 39.7024 14.6444 39.7371 14.6535 39.7716C14.6626 39.806 14.6726 39.8402 14.6834 39.8742C14.6943 39.9082 14.7059 39.9419 14.7184 39.9753C14.7309 40.0087 14.7442 40.0418 14.7583 40.0746C14.7724 40.1074 14.7873 40.1398 14.803 40.1718ZM25.6133 48.9814L26.3102 49.2803L27.5358 49.7262L28.8292 50.0917L30.18 50.3495L31.579 50.4766L31.8133 50.4715C31.8492 50.4708 31.885 50.4691 31.9208 50.4666C31.9566 50.464 31.9923 50.4607 32.028 50.4564C32.0636 50.4522 32.0991 50.447 32.1345 50.441C32.1698 50.4351 32.205 50.4282 32.2401 50.4205C32.2751 50.4127 32.3099 50.4042 32.3445 50.3947C32.3792 50.3854 32.4135 50.3752 32.4476 50.364C32.4817 50.3529 32.5155 50.341 32.5491 50.3283C32.5826 50.3156 32.6158 50.302 32.6486 50.2876C32.6815 50.2734 32.7139 50.2582 32.746 50.2423C32.7781 50.2263 32.8098 50.2096 32.8411 50.1922C32.8724 50.1748 32.9032 50.1566 32.9336 50.1376C32.9639 50.1186 32.9938 50.0989 33.0232 50.0784C33.0526 50.058 33.0815 50.0368 33.1099 50.0149C33.1382 49.9931 33.166 49.9706 33.1932 49.9474C33.2205 49.9242 33.2471 49.9003 33.2732 49.8759C33.2993 49.8513 33.3247 49.8262 33.3495 49.8004C33.3743 49.7747 33.3985 49.7484 33.422 49.7214C33.4455 49.6946 33.4684 49.6671 33.4905 49.6391C33.5127 49.611 33.5342 49.5824 33.5549 49.5534C33.5757 49.5244 33.5957 49.4948 33.615 49.4647C33.6342 49.4347 33.6528 49.4042 33.6705 49.3732C33.6883 49.3422 33.7053 49.3108 33.7216 49.279C33.7378 49.2472 33.7532 49.215 33.7679 49.1825C33.7825 49.15 33.7963 49.1172 33.8093 49.0839C33.8223 49.0507 33.8345 49.0171 33.8459 48.9834C33.8572 48.9496 33.8677 48.9156 33.8774 48.8812C33.8871 48.8469 33.8959 48.8123 33.9039 48.7776C33.9118 48.7429 33.9189 48.708 33.9252 48.6729C33.9314 48.6378 33.9368 48.6025 33.9413 48.5671C33.9458 48.5318 33.9494 48.4963 33.9521 48.4607C33.9549 48.4253 33.9567 48.3897 33.9577 48.354C33.9587 48.3185 33.9588 48.2828 33.958 48.2471C33.9573 48.2116 33.9556 48.176 33.9531 48.1404C33.9505 48.1049 33.9471 48.0694 33.9428 48.0339C33.9385 47.9986 33.9334 47.9634 33.9273 47.9283C33.9213 47.8931 33.9144 47.8581 33.9067 47.8233C33.8989 47.7885 33.8903 47.7539 33.8808 47.7196C33.8713 47.6852 33.861 47.6511 33.8499 47.6172C33.8387 47.5833 33.8267 47.5497 33.8139 47.5165C33.8011 47.4832 33.7875 47.4502 33.773 47.4176C33.7586 47.3849 33.7433 47.3527 33.7273 47.3208C33.7112 47.2889 33.6944 47.2575 33.6768 47.2264C33.6592 47.1953 33.6409 47.1647 33.6218 47.1346C33.6026 47.1044 33.5828 47.0747 33.5622 47.0455C33.5416 47.0163 33.5204 46.9877 33.4984 46.9595C33.4764 46.9313 33.4537 46.9037 33.4303 46.8767C33.407 46.8496 33.3829 46.8231 33.3583 46.7973C33.3336 46.7714 33.3083 46.7461 33.2824 46.7215C33.2565 46.6968 33.23 46.6728 33.2029 46.6495C33.1758 46.6261 33.1481 46.6034 33.1199 46.5814C33.0916 46.5594 33.0629 46.5381 33.0336 46.5175C33.0043 46.4969 32.9746 46.477 32.9443 46.4578C32.914 46.4387 32.8833 46.4203 32.8522 46.4026C32.821 46.385 32.7894 46.3681 32.7574 46.352C32.7254 46.3358 32.693 46.3205 32.6602 46.306C32.6275 46.2914 32.5944 46.2777 32.5609 46.2648C32.5275 46.2519 32.4937 46.2398 32.4597 46.2285C32.4256 46.2172 32.3914 46.2068 32.3568 46.1972C32.3222 46.1876 32.2875 46.1788 32.2525 46.1709C32.2175 46.163 32.1823 46.1559 32.147 46.1497C32.1116 46.1436 32.0762 46.1382 32.0406 46.1338C32.005 46.1293 31.9693 46.1257 31.9335 46.123C31.8977 46.1202 31.8619 46.1184 31.826 46.1174C31.7901 46.1164 31.7543 46.1163 31.7184 46.1171L31.6078 46.1195L31.6553 48.2967L31.8548 46.128L30.6869 46.022L30.4874 48.1907L30.9013 46.0522L29.751 45.8326L29.3371 47.9711L29.9372 45.8766L28.8139 45.5592L28.2139 47.6537L28.968 45.6089L27.8768 45.2119L27.1226 47.2567L27.992 45.2575L27.3521 44.983C27.3191 44.9689 27.2859 44.9556 27.2523 44.9431C27.2187 44.9306 27.1848 44.9189 27.1506 44.908C27.1164 44.8972 27.082 44.8871 27.0473 44.878C27.0126 44.8688 26.9777 44.8605 26.9427 44.853C26.9076 44.8455 26.8723 44.8389 26.8369 44.8331C26.8015 44.8274 26.766 44.8225 26.7303 44.8185C26.6947 44.8144 26.6589 44.8113 26.6231 44.809C26.5873 44.8067 26.5514 44.8053 26.5156 44.8048C26.4797 44.8042 26.4438 44.8046 26.408 44.8058C26.3721 44.807 26.3363 44.8091 26.3005 44.8121C26.2647 44.815 26.2291 44.8188 26.1935 44.8235C26.1579 44.8282 26.1225 44.8338 26.0872 44.8402C26.0519 44.8467 26.0168 44.8539 25.9819 44.8621C25.9469 44.8702 25.9122 44.8792 25.8777 44.889C25.8432 44.8989 25.809 44.9095 25.775 44.9211C25.7411 44.9326 25.7074 44.9449 25.6741 44.958C25.6407 44.9712 25.6077 44.9851 25.575 44.9999C25.5424 45.0146 25.5101 45.0302 25.4782 45.0465C25.4463 45.0628 25.4148 45.0799 25.3837 45.0978C25.3527 45.1156 25.3221 45.1342 25.292 45.1536C25.2618 45.1729 25.2322 45.193 25.203 45.2138C25.1739 45.2346 25.1453 45.2561 25.1172 45.2783C25.0891 45.3005 25.0616 45.3234 25.0347 45.3469C25.0077 45.3704 24.9814 45.3946 24.9556 45.4194C24.9299 45.4442 24.9048 45.4697 24.8803 45.4957C24.8558 45.5218 24.8319 45.5484 24.8087 45.5756C24.7856 45.6028 24.7631 45.6306 24.7413 45.6589C24.7195 45.6872 24.6984 45.716 24.678 45.7453C24.6576 45.7747 24.638 45.8045 24.6191 45.8348C24.6002 45.8651 24.582 45.8958 24.5646 45.927C24.5472 45.9581 24.5306 45.9897 24.5148 46.0217C24.499 46.0537 24.4839 46.0861 24.4697 46.1188C24.4555 46.1515 24.4421 46.1845 24.4295 46.2179C24.4169 46.2513 24.4051 46.2849 24.3942 46.3189C24.3832 46.3528 24.3732 46.387 24.3639 46.4214C24.3547 46.4559 24.3463 46.4905 24.3388 46.5254C24.3312 46.5602 24.3246 46.5952 24.3188 46.6304C24.313 46.6656 24.3081 46.7009 24.304 46.7363C24.2999 46.7717 24.2968 46.8072 24.2945 46.8427C24.2922 46.8783 24.2908 46.9139 24.2902 46.9496C24.2897 46.9852 24.29 47.0208 24.2913 47.0564C24.2925 47.092 24.2946 47.1276 24.2976 47.1631C24.3005 47.1987 24.3044 47.2341 24.3091 47.2694C24.3139 47.3047 24.3195 47.3399 24.3259 47.375C24.3324 47.41 24.3397 47.4449 24.3479 47.4796C24.3561 47.5143 24.3652 47.5488 24.3751 47.583C24.385 47.6173 24.3957 47.6513 24.4073 47.685C24.4189 47.7188 24.4313 47.7522 24.4445 47.7853C24.4578 47.8184 24.4718 47.8512 24.4867 47.8837C24.5015 47.9161 24.5172 47.9481 24.5336 47.9798C24.55 48.0115 24.5672 48.0428 24.5852 48.0737C24.6032 48.1045 24.622 48.1349 24.6414 48.1648C24.6609 48.1948 24.6812 48.2242 24.7021 48.2531C24.723 48.282 24.7447 48.3104 24.767 48.3382C24.7894 48.3662 24.8124 48.3935 24.8361 48.4203C24.8598 48.447 24.8841 48.4732 24.9091 48.4988C24.9341 48.5244 24.9597 48.5493 24.9859 48.5736C25.0122 48.5979 25.039 48.6216 25.0664 48.6448C25.0938 48.6677 25.1217 48.6901 25.1502 48.7117C25.1787 48.7334 25.2077 48.7543 25.2373 48.7745C25.2668 48.7948 25.2968 48.8144 25.3273 48.8331C25.3578 48.8519 25.3888 48.8699 25.4201 48.8872C25.4515 48.9045 25.4833 48.921 25.5155 48.9366C25.5478 48.9523 25.5803 48.9672 25.6133 48.9814ZM39.7045 48.2334L40.312 47.9247L41.3335 47.3828L42.3405 46.8262L43.3696 46.2323L44.4029 45.5939L44.7206 45.3721C44.75 45.3516 44.7788 45.3305 44.8071 45.3086C44.8354 45.2867 44.8632 45.2641 44.8904 45.2408C44.9176 45.2176 44.9442 45.1937 44.9702 45.1691C44.9962 45.1446 45.0216 45.1194 45.0464 45.0936C45.0711 45.0678 45.0952 45.0415 45.1187 45.0145C45.1422 44.9875 45.165 44.96 45.1871 44.9319C45.2092 44.9039 45.2306 44.8753 45.2513 44.8462C45.272 44.817 45.2919 44.7874 45.3111 44.7573C45.3304 44.7272 45.3488 44.6967 45.3666 44.6657C45.3843 44.6347 45.4012 44.6033 45.4174 44.5715C45.4336 44.5397 45.4489 44.5075 45.4635 44.4749C45.4781 44.4423 45.4919 44.4094 45.5048 44.3762C45.5177 44.343 45.5299 44.3094 45.5412 44.2756C45.5525 44.2418 45.5629 44.2077 45.5725 44.1734C45.5821 44.139 45.5909 44.1045 45.5988 44.0697C45.6066 44.0349 45.6137 44 45.6199 43.9649C45.626 43.9298 45.6313 43.8945 45.6358 43.8592C45.6402 43.8238 45.6437 43.7884 45.6464 43.7528C45.6491 43.7173 45.6509 43.6817 45.6518 43.6461C45.6527 43.6104 45.6528 43.5748 45.6519 43.5392C45.6511 43.5035 45.6493 43.468 45.6467 43.4324C45.6441 43.3969 45.6406 43.3614 45.6363 43.326C45.6319 43.2906 45.6267 43.2554 45.6206 43.2203C45.6145 43.1851 45.6075 43.1502 45.5997 43.1154C45.5919 43.0806 45.5832 43.0461 45.5737 43.0117C45.5641 42.9774 45.5538 42.9433 45.5425 42.9094C45.5313 42.8755 45.5193 42.842 45.5064 42.8087C45.4935 42.7755 45.4798 42.7425 45.4653 42.7099C45.4508 42.6773 45.4355 42.6451 45.4194 42.6133C45.4033 42.5814 45.3864 42.55 45.3687 42.5189C45.3511 42.4879 45.3327 42.4573 45.3135 42.4272C45.2943 42.3971 45.2744 42.3674 45.2538 42.3383C45.2332 42.3091 45.2118 42.2805 45.1898 42.2524C45.1677 42.2242 45.145 42.1967 45.1216 42.1697C45.0982 42.1427 45.0741 42.1162 45.0494 42.0904C45.0247 42.0646 44.9993 42.0393 44.9734 42.0147C44.9474 41.9901 44.9208 41.9662 44.8937 41.9429C44.8665 41.9196 44.8388 41.897 44.8106 41.875C44.7823 41.853 44.7535 41.8318 44.7242 41.8112C44.6949 41.7907 44.665 41.7709 44.6348 41.7518C44.6045 41.7327 44.5737 41.7143 44.5425 41.6967C44.5113 41.6791 44.4797 41.6623 44.4476 41.6462C44.4156 41.6302 44.3832 41.6149 44.3504 41.6004C44.3176 41.586 44.2845 41.5723 44.251 41.5594C44.2175 41.5466 44.1838 41.5345 44.1497 41.5233C44.1156 41.5121 44.0813 41.5017 44.0467 41.4922C44.0122 41.4827 43.9774 41.474 43.9424 41.4661C43.9074 41.4583 43.8722 41.4513 43.8368 41.4452C43.8015 41.439 43.766 41.4338 43.7304 41.4294C43.6948 41.425 43.6591 41.4215 43.6233 41.4188C43.5875 41.4161 43.5517 41.4144 43.5158 41.4134C43.4799 41.4125 43.4441 41.4125 43.4082 41.4133C43.3723 41.4142 43.3365 41.4159 43.3007 41.4185C43.2649 41.4211 43.2292 41.4245 43.1936 41.4288C43.158 41.4332 43.1225 41.4384 43.0871 41.4444C43.0518 41.4505 43.0166 41.4574 42.9815 41.4652C42.9465 41.4729 42.9117 41.4816 42.8771 41.491C42.8425 41.5005 42.8082 41.5108 42.7741 41.522C42.74 41.5331 42.7062 41.5451 42.6727 41.5579C42.6392 41.5707 42.6061 41.5843 42.5733 41.5987C42.5404 41.6131 42.508 41.6283 42.4759 41.6443C42.4438 41.6603 42.4122 41.677 42.381 41.6946C42.3497 41.7121 42.3189 41.7304 42.2886 41.7494C42.2582 41.7685 42.2284 41.7882 42.199 41.8087L41.9317 41.9953L43.1925 43.777L42.0342 41.928L41.0808 42.517L42.2391 44.3661L41.137 42.4835L40.2068 43.021L39.2659 43.5418L38.3151 44.0471L37.7076 44.3557C37.6756 44.3719 37.6441 44.3889 37.613 44.4067C37.5819 44.4244 37.5512 44.4429 37.5211 44.4622C37.4909 44.4815 37.4612 44.5014 37.4319 44.5221C37.4027 44.5429 37.3741 44.5643 37.3459 44.5864C37.3178 44.6085 37.2902 44.6313 37.2632 44.6547C37.2361 44.6782 37.2097 44.7023 37.1839 44.727C37.1581 44.7517 37.1329 44.7771 37.1083 44.8031C37.0837 44.829 37.0598 44.8556 37.0365 44.8827C37.0133 44.9099 36.9907 44.9375 36.9688 44.9658C36.9469 44.994 36.9257 45.0228 36.9052 45.052C36.8848 45.0813 36.865 45.1111 36.846 45.1413C36.827 45.1715 36.8088 45.2022 36.7913 45.2333C36.7738 45.2644 36.7571 45.296 36.7412 45.3279C36.7252 45.3599 36.7101 45.3922 36.6958 45.4248C36.6814 45.4575 36.6679 45.4905 36.6552 45.5239C36.6425 45.5572 36.6307 45.5908 36.6196 45.6247C36.6086 45.6586 36.5984 45.6928 36.5891 45.7272C36.5797 45.7616 36.5712 45.7962 36.5636 45.8311C36.5559 45.8659 36.5492 45.9009 36.5433 45.936C36.5374 45.9712 36.5323 46.0064 36.5281 46.0418C36.524 46.0772 36.5207 46.1127 36.5183 46.1483C36.5159 46.1838 36.5144 46.2194 36.5137 46.2551C36.5131 46.2907 36.5133 46.3263 36.5144 46.362C36.5155 46.3976 36.5175 46.4331 36.5204 46.4687C36.5232 46.5042 36.527 46.5396 36.5316 46.575C36.5362 46.6103 36.5417 46.6455 36.5481 46.6806C36.5544 46.7157 36.5617 46.7506 36.5698 46.7853C36.5778 46.82 36.5868 46.8545 36.5966 46.8888C36.6064 46.9231 36.617 46.9571 36.6285 46.9909C36.64 47.0247 36.6523 47.0581 36.6654 47.0913C36.6785 47.1245 36.6925 47.1573 36.7072 47.1898C36.722 47.2223 36.7375 47.2544 36.7539 47.2861C36.7702 47.3178 36.7873 47.3492 36.8052 47.3801C36.8231 47.411 36.8417 47.4414 36.8611 47.4714C36.8805 47.5014 36.9006 47.5309 36.9215 47.5599C36.9423 47.5889 36.9639 47.6174 36.9862 47.6453C37.0084 47.6733 37.0314 47.7007 37.055 47.7275C37.0786 47.7543 37.1028 47.7806 37.1278 47.8062C37.1527 47.8319 37.1782 47.8569 37.2043 47.8813C37.2305 47.9057 37.2572 47.9295 37.2846 47.9526C37.3119 47.9757 37.3398 47.9982 37.3682 48.0199C37.3966 48.0416 37.4256 48.0626 37.455 48.0829C37.4845 48.1032 37.5145 48.1228 37.5449 48.1417C37.5753 48.1606 37.6062 48.1787 37.6376 48.1961C37.6689 48.2136 37.7007 48.2301 37.7328 48.2459C37.765 48.2617 37.7975 48.2768 37.8304 48.2911C37.8633 48.3052 37.8965 48.3186 37.9301 48.3313C37.9637 48.3439 37.9975 48.3557 38.0317 48.3666C38.0658 48.3776 38.1002 48.3877 38.1348 48.397C38.1695 48.4064 38.2043 48.4148 38.2394 48.4223C38.2745 48.4299 38.3097 48.4366 38.3451 48.4424C38.3805 48.4483 38.416 48.4534 38.4517 48.4575C38.4873 48.4616 38.523 48.4649 38.5588 48.4673C38.5946 48.4697 38.6305 48.4712 38.6664 48.4718C38.7022 48.4724 38.7381 48.4722 38.774 48.4711C38.8098 48.47 38.8457 48.4681 38.8814 48.4653C38.9172 48.4624 38.9529 48.4586 38.9885 48.454C39.024 48.4494 39.0595 48.444 39.0948 48.4377C39.1301 48.4314 39.1653 48.4242 39.2002 48.4161C39.2352 48.4081 39.2699 48.3993 39.3045 48.3896C39.339 48.3798 39.3733 48.3692 39.4073 48.3578C39.4413 48.3465 39.475 48.3343 39.5084 48.3212C39.5417 48.3081 39.5748 48.2943 39.6075 48.2796C39.6402 48.265 39.6726 48.2496 39.7045 48.2334ZM50.0184 38.9996L50.1625 38.6995L50.6323 37.5804L51.0498 36.4606L51.422 35.3404L51.7518 34.2454L51.958 33.522C51.9677 33.4877 51.9766 33.4532 51.9846 33.4185C51.9927 33.3838 51.9999 33.3489 52.0062 33.3138C52.0125 33.2787 52.018 33.2435 52.0226 33.2081C52.0272 33.1728 52.0309 33.1373 52.0338 33.1018C52.0366 33.0663 52.0385 33.0307 52.0396 32.9951C52.0406 32.9595 52.0408 32.9238 52.0402 32.8882C52.0395 32.8526 52.0379 32.817 52.0354 32.7814C52.033 32.7459 52.0297 32.7104 52.0254 32.675C52.0212 32.6396 52.0162 32.6043 52.0102 32.5692C52.0043 32.534 51.9974 32.4991 51.9898 32.4642C51.9821 32.4294 51.9736 32.3948 51.9642 32.3604C51.9548 32.326 51.9446 32.2919 51.9335 32.258C51.9224 32.2241 51.9105 32.1905 51.8978 32.1571C51.8851 32.1238 51.8715 32.0908 51.8571 32.0582C51.8427 32.0255 51.8276 31.9932 51.8116 31.9613C51.7956 31.9294 51.779 31.8979 51.7615 31.8668C51.744 31.8357 51.7257 31.805 51.7065 31.7748C51.6875 31.7446 51.6678 31.7148 51.6473 31.6856C51.6269 31.6564 51.6057 31.6276 51.5837 31.5994C51.5618 31.5712 51.5392 31.5435 51.5158 31.5164C51.4925 31.4893 51.4686 31.4628 51.444 31.4368C51.4194 31.4109 51.3941 31.3856 51.3683 31.3609C51.3425 31.3361 51.3161 31.3121 51.289 31.2887C51.262 31.2652 51.2343 31.2425 51.2061 31.2204C51.1779 31.1983 51.1492 31.1769 51.12 31.1563C51.0908 31.1356 51.061 31.1156 51.0308 31.0964C51.0006 31.0772 50.97 31.0587 50.9389 31.041C50.9077 31.0232 50.8762 31.0063 50.8443 30.9901C50.8122 30.9739 50.7799 30.9585 50.7472 30.9439C50.7145 30.9292 50.6814 30.9154 50.648 30.9024C50.6145 30.8894 50.5808 30.8772 50.5468 30.8659C50.5128 30.8545 50.4785 30.844 50.444 30.8343C50.4094 30.8246 50.3747 30.8158 50.3397 30.8078C50.3048 30.7998 50.2696 30.7927 50.2343 30.7864C50.199 30.7801 50.1635 30.7747 50.1279 30.7701C50.0923 30.7656 50.0566 30.7619 50.0209 30.7591C49.9851 30.7563 49.9493 30.7543 49.9134 30.7533C49.8775 30.7522 49.8417 30.752 49.8058 30.7527C49.7699 30.7534 49.7341 30.7549 49.6983 30.7574C49.6625 30.7598 49.6267 30.7631 49.5911 30.7673C49.5555 30.7714 49.52 30.7765 49.4846 30.7824C49.4492 30.7883 49.4139 30.7951 49.3789 30.8027C49.3438 30.8103 49.309 30.8188 49.2744 30.8281C49.2397 30.8374 49.2053 30.8476 49.1712 30.8586C49.1371 30.8696 49.1032 30.8814 49.0697 30.894C49.0361 30.9067 49.0029 30.9201 48.97 30.9344C48.9371 30.9487 48.9046 30.9637 48.8725 30.9796C48.8404 30.9954 48.8086 31.0121 48.7773 31.0295C48.746 31.0469 48.7151 31.065 48.6847 31.0839C48.6543 31.1028 48.6243 31.1225 48.5949 31.1428C48.5654 31.1632 48.5365 31.1843 48.5081 31.2061C48.4797 31.2278 48.4518 31.2503 48.4245 31.2734C48.3973 31.2966 48.3705 31.3203 48.3444 31.3448C48.3183 31.3692 48.2928 31.3943 48.2679 31.42C48.243 31.4456 48.2188 31.4719 48.1952 31.4988C48.1716 31.5256 48.1487 31.553 48.1265 31.581C48.1043 31.609 48.0827 31.6375 48.0619 31.6665C48.0411 31.6956 48.021 31.7251 48.0016 31.7551C47.9823 31.7851 47.9637 31.8156 47.9458 31.8465C47.928 31.8774 47.9109 31.9087 47.8946 31.9405C47.8783 31.9722 47.8628 32.0043 47.848 32.0369C47.8333 32.0693 47.8194 32.1022 47.8063 32.1354C47.7932 32.1686 47.781 32.202 47.7695 32.2358C47.7581 32.2696 47.7475 32.3036 47.7378 32.3379L47.5506 32.9968L47.2295 34.0626L49.3301 34.6869L47.2479 34.0044L46.8976 35.0586L48.9798 35.7411L46.9235 34.9851L46.5352 36.0269L48.5915 36.783L46.5677 35.9448L46.1359 36.9731L48.1597 37.8113L46.1804 36.8742L46.0598 37.1255C46.0443 37.1577 46.0297 37.1902 46.0159 37.2231C46.002 37.2559 45.989 37.2892 45.9768 37.3227C45.9646 37.3562 45.9533 37.39 45.9428 37.4241C45.9322 37.4581 45.9226 37.4924 45.9137 37.527C45.9049 37.5615 45.8969 37.5963 45.8898 37.6312C45.8827 37.6661 45.8765 37.7012 45.8711 37.7365C45.8657 37.7717 45.8612 37.8071 45.8576 37.8425C45.854 37.878 45.8512 37.9135 45.8494 37.9491C45.8475 37.9847 45.8465 38.0203 45.8464 38.0559C45.8463 38.0916 45.8471 38.1272 45.8487 38.1628C45.8504 38.1984 45.8529 38.2339 45.8563 38.2694C45.8597 38.3049 45.864 38.3403 45.8692 38.3755C45.8743 38.4108 45.8803 38.4459 45.8872 38.4809C45.8941 38.5159 45.9019 38.5507 45.9105 38.5853C45.9191 38.6199 45.9286 38.6542 45.9389 38.6884C45.9492 38.7225 45.9604 38.7564 45.9723 38.79C45.9843 38.8235 45.9971 38.8568 46.0108 38.8898C46.0244 38.9228 46.0388 38.9554 46.0541 38.9876C46.0693 39.0199 46.0853 39.0518 46.1022 39.0833C46.119 39.1147 46.1366 39.1458 46.1549 39.1764C46.1733 39.207 46.1924 39.2372 46.2122 39.2669C46.2321 39.2966 46.2526 39.3258 46.2739 39.3545C46.2952 39.3832 46.3172 39.4113 46.3399 39.4389C46.3626 39.4666 46.3859 39.4936 46.4099 39.5201C46.434 39.5466 46.4586 39.5724 46.4839 39.5977C46.5092 39.623 46.5351 39.6476 46.5616 39.6717C46.5881 39.6957 46.6152 39.719 46.6429 39.7417C46.6706 39.7644 46.6988 39.7864 46.7276 39.8077C46.7563 39.8291 46.7856 39.8497 46.8154 39.8695C46.8451 39.8894 46.8754 39.9086 46.9061 39.927C46.9368 39.9454 46.968 39.9631 46.9996 39.98C47.0312 39.9969 47.0632 40.013 47.0956 40.0283C47.128 40.0437 47.1607 40.0582 47.1938 40.0719C47.2269 40.0857 47.2604 40.0986 47.2941 40.1107C47.3279 40.1228 47.3619 40.1341 47.3962 40.1445C47.4305 40.155 47.4651 40.1646 47.4998 40.1734C47.5346 40.1821 47.5696 40.19 47.6048 40.1971C47.64 40.2042 47.6753 40.2104 47.7108 40.2157C47.7462 40.221 47.7818 40.2255 47.8175 40.2291C47.8532 40.2327 47.889 40.2354 47.9248 40.2373C47.9607 40.2391 47.9965 40.2401 48.0324 40.2402C48.0683 40.2403 48.1042 40.2396 48.14 40.2379C48.1759 40.2363 48.2117 40.2338 48.2474 40.2304C48.2831 40.227 48.3187 40.2228 48.3542 40.2176C48.3897 40.2125 48.4251 40.2065 48.4603 40.1997C48.4955 40.1928 48.5306 40.1851 48.5654 40.1766C48.6002 40.168 48.6348 40.1586 48.6692 40.1484C48.7036 40.1381 48.7377 40.1271 48.7715 40.1152C48.8053 40.1033 48.8388 40.0905 48.872 40.077C48.9052 40.0635 48.9381 40.0491 48.9706 40.034C49.003 40.0188 49.0351 40.0029 49.0668 39.9862C49.0985 39.9695 49.1298 39.952 49.1606 39.9338C49.1915 39.9156 49.2218 39.8966 49.2517 39.8769C49.2816 39.8572 49.311 39.8368 49.3399 39.8156C49.3688 39.7945 49.3971 39.7726 49.425 39.7501C49.4528 39.7276 49.48 39.7044 49.5067 39.6805C49.5333 39.6567 49.5594 39.6322 49.5848 39.6071C49.6103 39.582 49.6351 39.5562 49.6593 39.5299C49.6835 39.5036 49.707 39.4767 49.7298 39.4492C49.7527 39.4217 49.7748 39.3937 49.7963 39.3651C49.8178 39.3366 49.8385 39.3075 49.8585 39.2779C49.8786 39.2483 49.8979 39.2183 49.9164 39.1878C49.9349 39.1573 49.9527 39.1263 49.9697 39.0949C49.9867 39.0636 50.003 39.0318 50.0184 38.9996ZM52.4886 25.2745L52.4336 25.057L51.894 23.7444L51.2954 22.6023L50.7233 21.5795L48.8065 22.6372L50.7496 21.6282L50.2245 20.6307L48.2814 21.6397L50.2593 20.6997L49.917 19.9893C49.9015 19.9572 49.8852 19.9254 49.8682 19.8941C49.8511 19.8627 49.8333 19.8318 49.8147 19.8013C49.7961 19.7708 49.7768 19.7408 49.7567 19.7113C49.7366 19.6817 49.7158 19.6527 49.6943 19.6241C49.6728 19.5956 49.6506 19.5676 49.6277 19.5402C49.6048 19.5127 49.5813 19.4859 49.557 19.4596C49.5328 19.4333 49.508 19.4076 49.4825 19.3825C49.457 19.3574 49.4309 19.333 49.4042 19.3091C49.3775 19.2853 49.3502 19.2622 49.3224 19.2397C49.2946 19.2172 49.2662 19.1954 49.2372 19.1743C49.2083 19.1532 49.1789 19.1328 49.149 19.1132C49.1191 19.0935 49.0887 19.0746 49.0578 19.0564C49.0269 19.0382 48.9956 19.0208 48.9639 19.0041C48.9322 18.9875 48.9001 18.9716 48.8676 18.9565C48.8351 18.9414 48.8022 18.9271 48.769 18.9136C48.7358 18.9001 48.7022 18.8875 48.6684 18.8756C48.6345 18.8638 48.6004 18.8527 48.566 18.8426C48.5317 18.8324 48.497 18.823 48.4622 18.8145C48.4273 18.806 48.3923 18.7984 48.3571 18.7916C48.3218 18.7848 48.2865 18.7788 48.251 18.7738C48.2154 18.7687 48.1798 18.7645 48.1441 18.7612C48.1084 18.7578 48.0726 18.7554 48.0367 18.7538C48.0009 18.7522 47.965 18.7515 47.9291 18.7517C47.8932 18.7518 47.8574 18.7529 47.8215 18.7548C47.7857 18.7567 47.7499 18.7595 47.7143 18.7631C47.6785 18.7668 47.643 18.7713 47.6075 18.7767C47.572 18.7821 47.5367 18.7883 47.5015 18.7954C47.4664 18.8025 47.4314 18.8105 47.3966 18.8193C47.3619 18.8281 47.3273 18.8378 47.2931 18.8483C47.2588 18.8588 47.2248 18.8701 47.191 18.8823C47.1573 18.8945 47.1239 18.9074 47.0908 18.9212C47.0577 18.935 47.025 18.9496 46.9926 18.965C46.9602 18.9803 46.9282 18.9965 46.8967 19.0135C46.8651 19.0304 46.834 19.0481 46.8033 19.0666C46.7726 19.085 46.7424 19.1042 46.7126 19.1242C46.6829 19.1441 46.6536 19.1647 46.6249 19.1861C46.5962 19.2075 46.568 19.2295 46.5404 19.2522C46.5127 19.275 46.4857 19.2984 46.4592 19.3224C46.4327 19.3465 46.4068 19.3712 46.3816 19.3965C46.3563 19.4218 46.3317 19.4477 46.3077 19.4742C46.2837 19.5007 46.2604 19.5278 46.2378 19.5555C46.2152 19.5831 46.1932 19.6113 46.172 19.64C46.1507 19.6688 46.1302 19.698 46.1104 19.7277C46.0906 19.7574 46.0715 19.7876 46.0532 19.8183C46.0349 19.8489 46.0174 19.88 46.0006 19.9115C45.9838 19.943 45.9679 19.9749 45.9527 20.0072C45.9375 20.0395 45.9231 20.0721 45.9095 20.1051C45.8959 20.1381 45.8832 20.1714 45.8712 20.205C45.8593 20.2386 45.8482 20.2725 45.8379 20.3067C45.8277 20.3408 45.8183 20.3752 45.8097 20.4098C45.8011 20.4444 45.7934 20.4792 45.7866 20.5142C45.7798 20.5492 45.7738 20.5843 45.7687 20.6196C45.7636 20.6549 45.7593 20.6903 45.756 20.7257C45.7526 20.7612 45.7501 20.7968 45.7486 20.8324C45.747 20.868 45.7462 20.9036 45.7464 20.9392C45.7466 20.9749 45.7476 21.0105 45.7495 21.0461C45.7515 21.0817 45.7543 21.1172 45.7579 21.1526C45.7616 21.1881 45.7662 21.2234 45.7716 21.2587C45.777 21.2939 45.7833 21.329 45.7905 21.3639C45.7976 21.3988 45.8057 21.4335 45.8145 21.4681C45.8234 21.5026 45.8331 21.5369 45.8437 21.571C45.8543 21.605 45.8657 21.6388 45.8779 21.6723C45.8902 21.7058 45.9032 21.739 45.9171 21.7718C45.931 21.8047 45.9457 21.8372 45.9612 21.8694L46.3202 22.6145L46.8763 23.6707L47.4475 24.6917L49.3642 23.6341L47.4192 24.6395L47.9572 25.6661L49.9022 24.6606L47.8722 25.4837L48.3148 26.5606L50.3449 25.7375L48.2184 26.2686L48.2356 26.3368C48.2444 26.3713 48.254 26.4057 48.2644 26.4397C48.2749 26.4738 48.2862 26.5077 48.2983 26.5412C48.3104 26.5748 48.3234 26.608 48.3371 26.6409C48.3509 26.6738 48.3655 26.7064 48.3808 26.7386C48.3962 26.7708 48.4124 26.8026 48.4293 26.834C48.4463 26.8654 48.464 26.8964 48.4824 26.927C48.5009 26.9575 48.5201 26.9876 48.5401 27.0172C48.5601 27.0468 48.5808 27.0759 48.6022 27.1045C48.6236 27.1331 48.6457 27.1612 48.6685 27.1887C48.6913 27.2163 48.7147 27.2432 48.7388 27.2696C48.763 27.296 48.7877 27.3218 48.8131 27.3469C48.8385 27.3721 48.8645 27.3967 48.8911 27.4206C48.9177 27.4445 48.9449 27.4677 48.9727 27.4903C49.0004 27.5129 49.0287 27.5348 49.0576 27.556C49.0864 27.5772 49.1158 27.5977 49.1456 27.6175C49.1755 27.6372 49.2058 27.6563 49.2366 27.6746C49.2674 27.6928 49.2986 27.7104 49.3303 27.7272C49.362 27.7439 49.394 27.7599 49.4265 27.7751C49.4589 27.7903 49.4918 27.8047 49.5249 27.8184C49.5581 27.832 49.5916 27.8447 49.6254 27.8567C49.6592 27.8687 49.6932 27.8798 49.7276 27.8901C49.7619 27.9005 49.7965 27.9099 49.8313 27.9186C49.8662 27.9272 49.9012 27.935 49.9364 27.9419C49.9716 27.9488 50.0069 27.9549 50.0424 27.9601C50.0779 27.9653 50.1135 27.9696 50.1493 27.973C50.185 27.9765 50.2208 27.9791 50.2566 27.9808C50.2924 27.9825 50.3283 27.9834 50.3642 27.9833C50.4001 27.9833 50.4359 27.9824 50.4718 27.9806C50.5076 27.9788 50.5434 27.9762 50.5791 27.9726C50.6148 27.9691 50.6504 27.9647 50.6858 27.9595C50.7214 27.9542 50.7568 27.9481 50.792 27.9411C50.8271 27.9341 50.862 27.9263 50.8969 27.9176C50.9317 27.9089 50.9663 27.8993 51.0007 27.889C51.0349 27.8786 51.0689 27.8674 51.1028 27.8553C51.1366 27.8433 51.17 27.8305 51.2031 27.8168C51.2363 27.8031 51.269 27.7886 51.3014 27.7734C51.3338 27.7581 51.3659 27.7421 51.3975 27.7252C51.4292 27.7084 51.4604 27.6908 51.4911 27.6725C51.5219 27.6541 51.5523 27.635 51.5821 27.6152C51.6118 27.5954 51.6411 27.5748 51.67 27.5536C51.6987 27.5323 51.727 27.5104 51.7548 27.4877C51.7824 27.4651 51.8096 27.4418 51.8363 27.4178C51.8628 27.3939 51.8888 27.3693 51.9141 27.3441C51.9394 27.3188 51.9641 27.293 51.9881 27.2666C52.0122 27.2401 52.0357 27.2131 52.0585 27.1856C52.0811 27.158 52.1032 27.1299 52.1246 27.1012C52.1459 27.0726 52.1665 27.0435 52.1864 27.0138C52.2063 26.9842 52.2255 26.954 52.2439 26.9234C52.2623 26.8929 52.28 26.8618 52.2969 26.8304C52.3137 26.7989 52.3298 26.7671 52.3452 26.7349C52.3605 26.7026 52.375 26.6701 52.3886 26.6371C52.4024 26.6042 52.4153 26.5709 52.4274 26.5374C52.4394 26.5038 52.4507 26.4699 52.461 26.4358C52.4714 26.4017 52.4809 26.3674 52.4897 26.3328C52.4983 26.2982 52.5061 26.2634 52.5131 26.2285C52.52 26.1935 52.5261 26.1584 52.5314 26.1231C52.5366 26.0879 52.541 26.0525 52.5445 26.0171C52.5479 25.9816 52.5505 25.946 52.5524 25.9104C52.5541 25.8748 52.5549 25.8392 52.5547 25.8036C52.5547 25.7679 52.5538 25.7323 52.552 25.6967C52.5503 25.6611 52.5477 25.6256 52.5441 25.5902C52.5405 25.5547 52.536 25.5193 52.5308 25.4841C52.5254 25.4488 52.5193 25.4137 52.5124 25.3788C52.5053 25.3438 52.4974 25.3091 52.4886 25.2745ZM45.009 13.4534L44.897 13.3663L43.697 12.6352L42.4588 12.0459L41.2196 11.5794L39.9946 11.2074L39.1449 10.9978C39.1101 10.9892 39.0751 10.9814 39.0399 10.9745C39.0047 10.9676 38.9693 10.9616 38.9338 10.9564C38.8983 10.9513 38.8627 10.947 38.827 10.9435C38.7912 10.9401 38.7555 10.9376 38.7196 10.9359C38.6838 10.9342 38.6479 10.9334 38.612 10.9335C38.5761 10.9335 38.5403 10.9344 38.5044 10.9362C38.4686 10.9381 38.4328 10.9408 38.3971 10.9444C38.3614 10.9479 38.3258 10.9523 38.2903 10.9577C38.2548 10.963 38.2195 10.9692 38.1843 10.9762C38.1491 10.9832 38.1142 10.9911 38.0794 10.9998C38.0446 11.0085 38.01 11.018 37.9757 11.0284C37.9414 11.0388 37.9073 11.0501 37.8736 11.0622C37.8398 11.0743 37.8064 11.0872 37.7732 11.1008C37.7401 11.1145 37.7073 11.129 37.6749 11.1444C37.6425 11.1596 37.6105 11.1757 37.5789 11.1925C37.5473 11.2094 37.5161 11.2271 37.4854 11.2455C37.4546 11.2639 37.4243 11.283 37.3945 11.3028C37.3647 11.3227 37.3355 11.3432 37.3067 11.3645C37.2779 11.3858 37.2496 11.4078 37.222 11.4304C37.1943 11.453 37.1671 11.4764 37.1406 11.5005C37.114 11.5244 37.0881 11.549 37.0628 11.5743C37.0375 11.5995 37.0128 11.6254 36.9887 11.6518C36.9647 11.6783 36.9413 11.7053 36.9186 11.7329C36.8959 11.7605 36.8739 11.7886 36.8525 11.8173C36.8312 11.8459 36.8106 11.8751 36.7907 11.9048C36.7709 11.9344 36.7517 11.9646 36.7333 11.9952C36.7149 12.0258 36.6973 12.0568 36.6805 12.0883C36.6636 12.1198 36.6475 12.1516 36.6323 12.1839C36.617 12.2161 36.6025 12.2487 36.5888 12.2816C36.5752 12.3146 36.5623 12.3479 36.5503 12.3815C36.5383 12.415 36.5271 12.4489 36.5167 12.483C36.5064 12.5171 36.4969 12.5515 36.4882 12.5861C36.4796 12.6207 36.4718 12.6554 36.4649 12.6904C36.4579 12.7254 36.4519 12.7605 36.4467 12.7958C36.4415 12.831 36.4371 12.8664 36.4337 12.9019C36.4302 12.9373 36.4277 12.9729 36.426 13.0085C36.4243 13.0441 36.4235 13.0797 36.4235 13.1153C36.4236 13.151 36.4246 13.1866 36.4264 13.2222C36.4282 13.2578 36.4309 13.2933 36.4345 13.3288C36.4381 13.3642 36.4426 13.3996 36.4479 13.4348C36.4532 13.4701 36.4594 13.5052 36.4665 13.5401C36.4736 13.5751 36.4815 13.6098 36.4903 13.6444C36.4991 13.6789 36.5087 13.7132 36.5192 13.7473C36.5297 13.7814 36.541 13.8152 36.5531 13.8487C36.5653 13.8823 36.5783 13.9155 36.5921 13.9484C36.6059 13.9813 36.6205 14.0138 36.6359 14.046C36.6513 14.0782 36.6675 14.11 36.6844 14.1414C36.7014 14.1728 36.7192 14.2038 36.7377 14.2343C36.7562 14.2648 36.7754 14.2949 36.7954 14.3245C36.8154 14.3541 36.8361 14.3832 36.8575 14.4118C36.879 14.4404 36.9011 14.4684 36.9239 14.4959C36.9467 14.5234 36.9702 14.5503 36.9944 14.5767C37.0185 14.6031 37.0433 14.6288 37.0687 14.654C37.0942 14.6791 37.1202 14.7037 37.1468 14.7275C37.1735 14.7514 37.2007 14.7746 37.2285 14.7972C37.2562 14.8198 37.2846 14.8416 37.3134 14.8628C37.3423 14.884 37.3717 14.9044 37.4015 14.9242C37.4314 14.9439 37.4618 14.9629 37.4926 14.9812C37.5234 14.9994 37.5546 15.017 37.5863 15.0337C37.618 15.0504 37.6501 15.0664 37.6826 15.0816C37.715 15.0967 37.7478 15.1111 37.781 15.1247C37.8142 15.1383 37.8477 15.151 37.8815 15.163C37.9153 15.1749 37.9494 15.186 37.9838 15.1963C38.0181 15.2066 38.0527 15.216 38.0875 15.2246L38.8806 15.4203L39.4093 13.3068L38.7681 15.3894L39.8685 15.7235L40.5096 13.641L39.7325 15.6774L40.8177 16.0859L41.5949 14.0495L40.6472 16.0134L41.6994 16.5142L42.6471 14.5503L41.5005 16.4066L42.4972 17.0139L43.6438 15.1576L42.2922 16.8724L42.3057 16.8829C42.334 16.9049 42.3628 16.9262 42.3921 16.9467C42.4214 16.9673 42.4512 16.9871 42.4815 17.0063C42.5118 17.0254 42.5425 17.0437 42.5737 17.0613C42.6049 17.079 42.6365 17.0958 42.6685 17.1119C42.7006 17.1279 42.733 17.1432 42.7658 17.1577C42.7986 17.1722 42.8317 17.1859 42.8651 17.1988C42.8986 17.2117 42.9324 17.2237 42.9664 17.2349C43.0005 17.2462 43.0348 17.2566 43.0694 17.2661C43.1039 17.2757 43.1387 17.2844 43.1737 17.2922C43.2087 17.3001 43.2439 17.3071 43.2792 17.3133C43.3146 17.3194 43.3501 17.3247 43.3857 17.3291C43.4213 17.3335 43.457 17.3371 43.4928 17.3397C43.5285 17.3424 43.5644 17.3442 43.6002 17.3451C43.6361 17.3461 43.672 17.3461 43.7079 17.3453C43.7437 17.3445 43.7796 17.3428 43.8154 17.3402C43.8512 17.3377 43.8869 17.3342 43.9225 17.3299C43.9581 17.3256 43.9936 17.3204 44.029 17.3144C44.0643 17.3083 44.0995 17.3015 44.1346 17.2937C44.1696 17.2859 44.2044 17.2773 44.239 17.2679C44.2736 17.2584 44.3079 17.2481 44.342 17.237C44.3761 17.2259 44.4099 17.2139 44.4434 17.2011C44.4769 17.1884 44.5101 17.1748 44.5429 17.1604C44.5757 17.146 44.6082 17.1308 44.6403 17.1148C44.6723 17.0989 44.704 17.0821 44.7353 17.0646C44.7665 17.0471 44.7973 17.0288 44.8277 17.0098C44.858 16.9908 44.8879 16.971 44.9172 16.9505C44.9466 16.9301 44.9754 16.9089 45.0038 16.887C45.0321 16.8651 45.0599 16.8426 45.0871 16.8193C45.1143 16.7961 45.1409 16.7722 45.1669 16.7477C45.193 16.7231 45.2184 16.698 45.2431 16.6722C45.2679 16.6464 45.292 16.6201 45.3155 16.5931C45.339 16.5661 45.3618 16.5386 45.3839 16.5106C45.406 16.4825 45.4275 16.4539 45.4482 16.4248C45.4689 16.3957 45.4889 16.3661 45.5081 16.336C45.5274 16.306 45.5458 16.2754 45.5636 16.2444C45.5813 16.2135 45.5983 16.1821 45.6145 16.1503C45.6306 16.1184 45.646 16.0863 45.6606 16.0537C45.6752 16.0211 45.689 15.9882 45.7019 15.955C45.7149 15.9218 45.7271 15.8882 45.7384 15.8544C45.7497 15.8206 45.7601 15.7865 45.7697 15.7522C45.7794 15.7179 45.7881 15.6833 45.7961 15.6485C45.804 15.6138 45.811 15.5788 45.8172 15.5437C45.8234 15.5086 45.8287 15.4734 45.8332 15.438C45.8376 15.4027 45.8412 15.3672 45.8439 15.3317C45.8466 15.2961 45.8484 15.2606 45.8493 15.2249C45.8503 15.1893 45.8503 15.1537 45.8495 15.118C45.8487 15.0824 45.847 15.0468 45.8444 15.0113C45.8418 14.9757 45.8383 14.9403 45.834 14.9049C45.8296 14.8695 45.8244 14.8343 45.8184 14.7991C45.8123 14.764 45.8053 14.7291 45.7975 14.6943C45.7897 14.6595 45.781 14.6249 45.7715 14.5906C45.762 14.5562 45.7516 14.5221 45.7404 14.4882C45.7292 14.4544 45.7172 14.4208 45.7043 14.3875C45.6915 14.3542 45.6778 14.3213 45.6633 14.2887C45.6488 14.2561 45.6335 14.2239 45.6174 14.192C45.6014 14.1602 45.5845 14.1287 45.5669 14.0977C45.5492 14.0666 45.5308 14.0361 45.5117 14.0059C45.4925 13.9758 45.4726 13.9461 45.452 13.917C45.4314 13.8878 45.4101 13.8591 45.388 13.831C45.366 13.8029 45.3433 13.7753 45.3199 13.7483C45.2965 13.7212 45.2724 13.6948 45.2477 13.669C45.223 13.6431 45.1977 13.6179 45.1717 13.5933C45.1458 13.5687 45.1192 13.5447 45.0921 13.5214C45.065 13.4981 45.0373 13.4754 45.009 13.4534ZM31.7276 9.85665L30.5079 9.83088L29.1866 9.91255L27.8747 10.1145L26.6077 10.4205L25.628 10.7297C25.5938 10.7405 25.5599 10.7521 25.5263 10.7646C25.4927 10.777 25.4594 10.7903 25.4264 10.8043C25.3934 10.8184 25.3608 10.8332 25.3286 10.849C25.2964 10.8646 25.2645 10.881 25.2331 10.8981C25.2017 10.9154 25.1707 10.9334 25.1402 10.952C25.1096 10.9708 25.0796 10.9903 25.05 11.0105C25.0205 11.0307 24.9914 11.0515 24.9629 11.0731C24.9343 11.0947 24.9063 11.1171 24.8789 11.14C24.8514 11.163 24.8246 11.1866 24.7983 11.2108C24.7721 11.2351 24.7464 11.2601 24.7214 11.2856C24.6963 11.3111 24.6719 11.3372 24.6482 11.364C24.6244 11.3907 24.6014 11.418 24.579 11.4458C24.5566 11.4737 24.5349 11.502 24.5139 11.5309C24.4929 11.5599 24.4726 11.5893 24.4531 11.6191C24.4335 11.649 24.4147 11.6794 24.3967 11.7102C24.3786 11.741 24.3614 11.7722 24.3449 11.8039C24.3284 11.8355 24.3127 11.8676 24.2978 11.9C24.2828 11.9324 24.2687 11.9651 24.2554 11.9983C24.2421 12.0314 24.2297 12.0648 24.218 12.0985C24.2064 12.1322 24.1956 12.1662 24.1856 12.2004C24.1757 12.2346 24.1665 12.2691 24.1583 12.3038C24.15 12.3385 24.1426 12.3733 24.1361 12.4084C24.1295 12.4434 24.1239 12.4786 24.1191 12.5139C24.1143 12.5492 24.1104 12.5846 24.1073 12.6202C24.1043 12.6557 24.1021 12.6912 24.1008 12.7268C24.0995 12.7625 24.0991 12.7981 24.0996 12.8337C24.1 12.8694 24.1014 12.905 24.1036 12.9405C24.1059 12.9761 24.109 13.0116 24.113 13.047C24.1169 13.0824 24.1218 13.1177 24.1275 13.1529C24.1333 13.1881 24.1399 13.2231 24.1473 13.258C24.1548 13.2929 24.1631 13.3275 24.1723 13.362C24.1815 13.3964 24.1915 13.4306 24.2024 13.4646C24.2132 13.4986 24.2249 13.5322 24.2375 13.5656C24.25 13.599 24.2633 13.6321 24.2775 13.6649C24.2917 13.6976 24.3066 13.73 24.3224 13.762C24.3382 13.794 24.3547 13.8256 24.3721 13.8568C24.3894 13.888 24.4075 13.9188 24.4263 13.9491C24.4452 13.9794 24.4648 14.0093 24.4851 14.0387C24.5054 14.068 24.5265 14.0969 24.5482 14.1252C24.57 14.1536 24.5924 14.1814 24.6156 14.2086C24.6387 14.2359 24.6625 14.2626 24.6869 14.2886C24.7114 14.3147 24.7364 14.3402 24.7621 14.3651C24.7878 14.3899 24.8142 14.4142 24.8411 14.4378C24.868 14.4613 24.8954 14.4842 24.9235 14.5065C24.9515 14.5287 24.9801 14.5503 25.0092 14.5711C25.0383 14.592 25.0679 14.6121 25.098 14.6315C25.1281 14.6509 25.1586 14.6696 25.1897 14.6875C25.2207 14.7054 25.2521 14.7226 25.284 14.739C25.3158 14.7554 25.3481 14.771 25.3807 14.7858C25.4134 14.8006 25.4464 14.8146 25.4797 14.8278C25.513 14.841 25.5467 14.8534 25.5806 14.865C25.6145 14.8765 25.6488 14.8873 25.6832 14.8972C25.7177 14.9071 25.7524 14.9161 25.7873 14.9243C25.8222 14.9325 25.8573 14.9399 25.8926 14.9464C25.9279 14.9528 25.9633 14.9585 25.9989 14.9632C26.0345 14.968 26.0701 14.9719 26.1059 14.9749C26.1416 14.9779 26.1775 14.9801 26.2133 14.9814C26.2492 14.9827 26.285 14.9831 26.3209 14.9826C26.3568 14.9821 26.3927 14.9808 26.4285 14.9786C26.4643 14.9764 26.5 14.9733 26.5357 14.9693C26.5714 14.9654 26.6069 14.9605 26.6423 14.9548C26.6777 14.9491 26.713 14.9426 26.7481 14.9352C26.7832 14.9278 26.8181 14.9195 26.8528 14.9104C26.8875 14.9013 26.9219 14.8913 26.9561 14.8805L27.8635 14.5941L27.1995 12.5187L27.7176 14.6347L28.8205 14.3684L28.3024 12.2523L28.6381 14.4044L29.7587 14.2319L29.423 12.0799L29.5592 14.2534L30.6891 14.1836L30.5529 12.0101L30.5065 14.1873L31.6348 14.211C31.6706 14.2118 31.7065 14.2116 31.7424 14.2107C31.7782 14.2097 31.8141 14.2078 31.8498 14.205C31.8856 14.2023 31.9213 14.1987 31.9569 14.1942C31.9925 14.1897 32.028 14.1844 32.0633 14.1782C32.0987 14.172 32.1338 14.1649 32.1688 14.157C32.2038 14.1491 32.2386 14.1403 32.2731 14.1306C32.3077 14.121 32.342 14.1106 32.376 14.0993C32.41 14.088 32.4438 14.0759 32.4772 14.0629C32.5106 14.05 32.5437 14.0362 32.5765 14.0217C32.6093 14.0071 32.6416 13.9918 32.6736 13.9757C32.7056 13.9595 32.7372 13.9426 32.7684 13.925C32.7995 13.9073 32.8302 13.8889 32.8605 13.8697C32.8908 13.8505 32.9205 13.8306 32.9498 13.81C32.979 13.7894 33.0078 13.7681 33.036 13.7461C33.0642 13.724 33.0919 13.7013 33.119 13.678C33.1461 13.6546 33.1726 13.6306 33.1985 13.6059C33.2244 13.5813 33.2497 13.556 33.2743 13.5301C33.299 13.5042 33.323 13.4777 33.3463 13.4507C33.3697 13.4236 33.3923 13.396 33.4143 13.3678C33.4363 13.3396 33.4576 13.3109 33.4781 13.2817C33.4987 13.2525 33.5185 13.2228 33.5376 13.1927C33.5567 13.1625 33.5751 13.1319 33.5926 13.1008C33.6102 13.0697 33.627 13.0382 33.6431 13.0064C33.6591 12.9745 33.6743 12.9422 33.6887 12.9096C33.7032 12.8769 33.7168 12.844 33.7296 12.8107C33.7424 12.7774 33.7544 12.7438 33.7655 12.7099C33.7766 12.6761 33.7869 12.6419 33.7964 12.6075C33.8059 12.5732 33.8145 12.5386 33.8222 12.5038C33.8299 12.469 33.8368 12.434 33.8428 12.3989C33.8489 12.3637 33.854 12.3285 33.8583 12.2931C33.8625 12.2577 33.8659 12.2222 33.8685 12.1867C33.871 12.1511 33.8726 12.1155 33.8734 12.0799C33.8741 12.0443 33.874 12.0086 33.873 11.973C33.872 11.9374 33.8701 11.9018 33.8674 11.8663C33.8646 11.8307 33.861 11.7953 33.8565 11.7599C33.8519 11.7246 33.8466 11.6894 33.8403 11.6543C33.8341 11.6191 33.8269 11.5842 33.819 11.5495C33.811 11.5147 33.8021 11.4802 33.7925 11.4458C33.7828 11.4116 33.7722 11.3775 33.7609 11.3437C33.7495 11.3099 33.7373 11.2764 33.7243 11.2431C33.7112 11.21 33.6974 11.1771 33.6827 11.1446C33.6681 11.112 33.6526 11.0799 33.6364 11.0482C33.6202 11.0164 33.6031 10.985 33.5854 10.954C33.5676 10.9231 33.549 10.8926 33.5297 10.8626C33.5104 10.8326 33.4904 10.803 33.4696 10.7738C33.4489 10.7448 33.4274 10.7162 33.4052 10.6882C33.383 10.6602 33.3602 10.6328 33.3367 10.6058C33.3131 10.5789 33.2889 10.5526 33.2641 10.5268C33.2393 10.5012 33.2138 10.4761 33.1878 10.4515C33.1617 10.4271 33.135 10.4033 33.1078 10.38C33.0805 10.3568 33.0527 10.3343 33.0243 10.3125C32.996 10.2907 32.9671 10.2696 32.9377 10.2492C32.9083 10.2287 32.8784 10.209 32.848 10.19C32.8176 10.171 32.7868 10.1528 32.7555 10.1354C32.7242 10.118 32.6925 10.1013 32.6604 10.0853C32.6283 10.0695 32.5958 10.0543 32.563 10.0399C32.5301 10.0257 32.4969 10.0122 32.4634 9.99948C32.4299 9.98665 32.3961 9.97473 32.362 9.96372C32.3278 9.95271 32.2935 9.94249 32.2589 9.93305C32.2242 9.92362 32.1894 9.91509 32.1544 9.90747C32.1193 9.89972 32.0841 9.89289 32.0487 9.88696C32.0134 9.88091 31.9779 9.87577 31.9422 9.87153C31.9066 9.8673 31.8709 9.86397 31.8351 9.86156C31.7993 9.85901 31.7635 9.85738 31.7276 9.85665Z" fill="black"/>
<path fill-rule="evenodd" clip-rule="evenodd" d="M15.75 49.4009L34.1165 52.4736L36.4365 44.7919C57.0867 37.0515 52.2303 16.496 40.4965 11.3761C29.4766 6.76701 8.96168 15.3123 18.8701 38.2868L15.75 49.4009ZM21.7433 50.3611L23.0121 45.4042ZM28.7032 51.3214L29.4698 48.2386ZM27.1566 30.0044L29.127 24.2286ZM31.7966 35.5737L33.4475 30.7925Z" fill="white"/>
<path d="M21.7433 50.3611L23.0121 45.4042M28.7032 51.3214L29.4698 48.2386M27.1566 30.0044L29.127 24.2286M31.7966 35.5737L33.4475 30.7925M15.75 49.4009L34.1165 52.4736L36.4365 44.7919C57.0867 37.0515 52.2303 16.496 40.4965 11.3761C29.4766 6.76701 8.96168 15.3123 18.8701 38.2868L15.75 49.4009Z" stroke="black" stroke-width="4" stroke-linecap="round" stroke-linejoin="round"/>
<path d="M51.0286 44.7988C53.8669 44.7988 54.9668 45.6828 55.7183 48.1877C55.8813 48.7308 56.8587 48.7223 57.0317 48.1823C57.8383 45.6651 59.1461 44.7989 61.2987 44.7988C64.3799 44.7988 66.4339 46.7769 66.2057 51.0369C65.9775 55.297 59.3588 63.5132 56.1636 63.5132C52.9685 63.5132 45.8932 54.993 45.8936 51.0369C45.8938 47.0809 48.6325 44.7988 51.0286 44.7988Z" fill="#FF4D62" stroke="black" stroke-width="4" stroke-linecap="round"/>
</svg>
